<?xml version="1.0" encoding="UTF-8"?>
<svg id="Capa_2" data-name="Capa 2" xmlns="http://www.w3.org/2000/svg" xmlns:xlink="http://www.w3.org/1999/xlink" viewBox="0 0 625.41 303.26">
  <defs>
    <style>
      .cls-1, .cls-2, .cls-3 {
        fill: #fff;
      }

      .cls-4, .cls-5, .cls-6, .cls-7 {
        fill: none;
      }

      .cls-8 {
        clip-path: url(#clippath-1);
      }

      .cls-2 {
        stroke-width: 1.57px;
      }

      .cls-2, .cls-5, .cls-6, .cls-7 {
        stroke: #fff;
        stroke-miterlimit: 10;
      }

      .cls-5 {
        stroke-width: .78px;
      }

      .cls-6 {
        stroke-width: 2.35px;
      }

      .cls-9 {
        fill: #4a6fa5;
      }

      .cls-7 {
        stroke-width: 1.56px;
      }

      .cls-3 {
        font-family: Manrope-ExtraBold, Manrope;
        font-size: 149.45px;
        font-weight: 700;
        letter-spacing: .05em;
      }

      .cls-10 {
        clip-path: url(#clippath);
      }
    </style>
    <clipPath id="clippath">
      <rect class="cls-6" x="109.78" y="13.63" width="125.74" height="251.47"/>
    </clipPath>
    <clipPath id="clippath-1">
      <rect class="cls-4" x="110.17" y="13.63" width="125.19" height="128.08"/>
    </clipPath>
  </defs>
  <g id="Capa_1-2" data-name="Capa 1">
    <g>
      <g>
        <g>
          <g class="cls-10">
            <path class="cls-6" d="M236.38,13.48v251.87c0,.39-.31.78-.78.78h-125.89c-.39,0-.78-.31-.78-.78V13.48c0-.39.31-.78.78-.78h125.89c.47,0,.78.31.78.78Z"/>
          </g>
          <rect class="cls-6" x="109.78" y="13.63" width="125.74" height="251.47"/>
        </g>
        <path class="cls-2" d="M129.57,142.1h42.09l1.88,34.09c0,.4.31.71.78.71h5.24l.94,17.32h-22.3v-14.16c0-4.27-3.44-7.75-7.67-7.75s-7.67,3.48-7.67,7.75v14.16h-22.3l.94-17.32h5.24c.39,0,.7-.32.78-.71l2.03-34.09Z"/>
        <polygon class="cls-7" points="167.44 68.64 169.32 101.58 131.84 101.58 133.72 68.64 167.44 68.64"/>
        <circle class="cls-1" cx="150.62" cy="85.07" r="5.95"/>
        <g class="cls-8">
          <path class="cls-6" d="M131.23,101.72c-6.92-.05-13.83-.1-20.75-.14V14.18h124.41v24.8l-66.9,8.14v-8.84h4.15c.31,0,.63-.23.7-.55.08-.31,0-.63-.31-.86l-21.44-14.01c-.23-.16-.55-.16-.86,0l-21.44,14.01c-.31.16-.39.55-.31.86.08.31.39.55.7.55h4.15v24.33h-1.88c-1.74.42-2.95,1.73-2.97,2.97-.03,1.64,1.96,3.51,4.62,3.11-.62,11.01-1.24,22.02-1.86,33.03Z"/>
          <path class="cls-6" d="M167.99,62.61h1.88c1.64,0,2.97,1.33,2.97,2.97s-1.33,2.97-2.97,2.97l-2.15.27c.62,11.01,1.24,22.02,1.86,33.03,21.77-.12,43.53-.24,65.3-.35v-36.85l-66.9-8.14v6.1Z"/>
          <polygon class="cls-7" points="169.4 103.07 171.59 141.17 129.65 141.17 131.84 103.07 169.4 103.07"/>
          <circle class="cls-1" cx="150.62" cy="124.66" r="5.95"/>
        </g>
        <path class="cls-1" d="M187.73,214.57c7.07-2.7,10.45-8.09,10.6-17.01h-17.9l-21.67,19.55s22.21,0,28.97-2.55Z"/>
        <path class="cls-1" d="M182.58,218.43c-5.69,1.05-12.45,1.12-19.98,1.12h-52.09v44.87h92.59l-20.51-46Z"/>
        <path class="cls-1" d="M201.04,199.15c-.46,8.84-4.15,14.31-11.53,17.08-1.31.52-2.77.9-4.23,1.27l20.59,46.3h26.28l-31.12-64.65Z"/>
        <path class="cls-5" d="M157.59,49.94c-.23,0-.39-.08-.63-.16-.16-.16-.23-.31-.23-.55,0-3.36-2.82-6.1-6.18-6.1s-6.18,2.74-6.18,6.18v14.01h12.28v-8.76c0-.23.08-.39.23-.55.16-.16.39-.23.63-.16l77.3,9.39v-22.69l-77.23,9.39Z"/>
        <text class="cls-3" transform="translate(0 128.53)"><tspan x="0" y="0">E</tspan></text>
        <text class="cls-3" transform="translate(0 256.18)"><tspan x="0" y="0">D</tspan></text>
        <path class="cls-1" d="M128.64,37.73c-.18-.48,1.01-1.32,1.6-1.73,3.44-2.39,14.11-9.06,17.31-11.05,1.02-.73,2.04-1.46,3.06-2.2,3.75,2.55,7.5,5.11,11.25,7.66,7.51,4,11.08,6.46,10.72,7.39-.21.54-1.77.57-4.66.07.02,3.6.04,7.19.07,10.79-3.66.38-7.32.75-10.99,1.13.02-.22.27-3.53-2.4-5.59-2.77-2.14-6.03-.89-6.26-.8-3.11,1.25-3.87,4.38-3.93,4.66-.48,3.56-.68,7.67-.27,12.19.1,1.13.24,2.22.4,3.26,4.06-.02,8.12-.04,12.19-.07.07-3.15.13-6.3.2-9.46l11.05,1.38c-.04,2.49-.09,4.98-.13,7.47,1.53-.57,3.18-.14,4.06,1,.68.88.97,2.26.4,3.2-.78,1.29-2.9,1.33-3.93,1.33-4.08.01-17.23-.05-35.09-.27-1.36.78-2.94.63-3.8-.27-.82-.85-.7-2.08-.67-2.33.01-.12.15-1.22,1.07-2,1.5-1.27,3.62-.59,3.8-.53.03-3.99.01-8.08-.07-12.25-.08-4.23-.22-8.36-.4-12.39-.63-.09-1.55-.19-2.66-.27-1.25-.08-1.83-.06-1.93-.33Z"/>
        <rect class="cls-1" x="167.52" y="43.35" width="67.07" height="1.49" transform="translate(-3.88 24.85) rotate(-7.01)"/>
        <rect class="cls-1" x="167.59" y="59.06" width="67.07" height="1.49" transform="translate(7.85 -21.89) rotate(6.35)"/>
      </g>
      <g>
        <path class="cls-1" d="M278.78,137.17v-25.2h16.45v4.45h-11.69v5.39h9.59v4.45h-9.59v6.47h11.69v4.45h-16.45Z"/>
        <path class="cls-1" d="M301.17,137.17v-25.2h4.27l8.33,16.73,8.33-16.73h4.27v25.2h-4.45v-15.05l-7.32,15.05h-1.68l-7.32-15.05v15.05h-4.44Z"/>
        <path class="cls-1" d="M333.02,137.17v-25.2h10.64c.25,0,.57,0,.99.03.41.02.78.06,1.11.11,1.5.23,2.74.73,3.7,1.49.96.76,1.67,1.71,2.13,2.86s.68,2.43.68,3.84-.23,2.69-.69,3.84c-.46,1.15-1.17,2.1-2.13,2.86-.96.76-2.19,1.25-3.68,1.49-.33.05-.7.08-1.12.1s-.75.04-.98.04h-5.88v8.54h-4.76ZM337.78,124.18h5.67c.25,0,.51-.01.8-.03.29-.02.56-.07.81-.14.64-.17,1.14-.47,1.49-.88s.59-.88.73-1.38c.13-.51.2-.99.2-1.44s-.07-.94-.2-1.44c-.13-.51-.38-.97-.73-1.38s-.85-.71-1.49-.88c-.25-.07-.51-.12-.81-.14-.29-.02-.56-.04-.8-.04h-5.67v7.77Z"/>
        <path class="cls-1" d="M368.34,137.69c-2.52,0-4.69-.55-6.52-1.65s-3.23-2.63-4.22-4.6c-.99-1.97-1.48-4.26-1.48-6.88s.49-4.91,1.48-6.88c.99-1.97,2.39-3.51,4.22-4.6s4-1.64,6.52-1.64,4.69.55,6.52,1.64c1.83,1.1,3.23,2.63,4.22,4.6.99,1.97,1.48,4.26,1.48,6.88s-.49,4.91-1.48,6.88c-.99,1.97-2.39,3.51-4.22,4.6-1.83,1.1-4,1.65-6.52,1.65ZM368.34,133.21c1.6.02,2.93-.32,3.99-1.03s1.86-1.72,2.39-3.03.8-2.83.8-4.58-.27-3.27-.8-4.55c-.53-1.28-1.33-2.28-2.39-2.99-1.06-.71-2.39-1.08-3.99-1.1s-2.93.32-3.99,1.03c-1.06.71-1.86,1.72-2.39,3.03-.53,1.31-.8,2.83-.8,4.58s.27,3.27.8,4.55c.53,1.28,1.33,2.28,2.39,2.99,1.06.71,2.39,1.08,3.99,1.1Z"/>
        <path class="cls-1" d="M385.8,137.17v-25.2h8.16c.2,0,.61,0,1.22.02s1.21.05,1.79.12c2.03.24,3.75.95,5.16,2.12,1.41,1.17,2.49,2.65,3.22,4.45.74,1.8,1.1,3.76,1.1,5.9s-.37,4.1-1.1,5.9c-.73,1.8-1.81,3.28-3.22,4.44-1.41,1.17-3.13,1.87-5.16,2.12-.57.07-1.17.11-1.79.12s-1.03.02-1.22.02h-8.16ZM390.63,132.69h3.33c.31,0,.74,0,1.28-.03.54-.02,1.02-.07,1.45-.15,1.1-.22,1.99-.73,2.69-1.54.69-.8,1.21-1.77,1.54-2.9.33-1.13.5-2.3.5-3.5,0-1.26-.17-2.46-.52-3.59-.34-1.13-.87-2.09-1.57-2.87-.7-.78-1.58-1.28-2.64-1.49-.43-.09-.92-.15-1.45-.16-.54-.01-.96-.02-1.28-.02h-3.33v16.24Z"/>
        <path class="cls-1" d="M412.4,137.17v-25.2h16.45v4.45h-11.69v5.39h9.59v4.45h-9.59v6.47h11.69v4.45h-16.45Z"/>
        <path class="cls-1" d="M434.8,137.17v-25.2h10.64c.25,0,.57,0,.99.03.41.02.78.06,1.11.11,1.5.23,2.74.73,3.7,1.49.96.76,1.67,1.71,2.13,2.86s.68,2.43.68,3.84c0,2.11-.53,3.92-1.58,5.42-1.05,1.5-2.7,2.42-4.93,2.77l-2.1.14h-5.88v8.54h-4.76ZM439.56,124.18h5.67c.25,0,.51-.01.8-.03.29-.02.56-.07.81-.14.64-.17,1.14-.47,1.49-.88s.59-.88.73-1.38c.13-.51.2-.99.2-1.44s-.07-.94-.2-1.44c-.13-.51-.38-.97-.73-1.38s-.85-.71-1.49-.88c-.25-.07-.51-.12-.81-.14-.29-.02-.56-.04-.8-.04h-5.67v7.77ZM449.01,137.17l-4.97-10.25,4.9-.95,5.46,11.2h-5.39Z"/>
        <path class="cls-1" d="M458.25,137.17l7.7-25.2h7.1l7.7,25.2h-4.9l-6.86-22.22h.91l-6.76,22.22h-4.9ZM462.87,131.92v-4.45h13.3v4.45h-13.3Z"/>
        <path class="cls-1" d="M485.66,137.17v-25.2h4.27l8.33,16.73,8.33-16.73h4.27v25.2h-4.45v-15.05l-7.32,15.05h-1.68l-7.32-15.05v15.05h-4.44Z"/>
        <path class="cls-1" d="M517.86,137.17v-25.2h4.76v25.2h-4.76Z"/>
        <path class="cls-1" d="M529.62,137.17v-25.2h16.45v4.45h-11.69v5.39h9.59v4.45h-9.59v6.47h11.69v4.45h-16.45Z"/>
        <path class="cls-1" d="M552.02,137.17v-25.2h4.83l10.96,16.8v-16.8h4.83v25.2h-4.83l-10.96-16.8v16.8h-4.83Z"/>
        <path class="cls-1" d="M585.13,137.17v-20.75h-7.95v-4.45h20.65v4.45h-7.95v20.75h-4.76Z"/>
        <path class="cls-1" d="M613.2,137.69c-2.52,0-4.69-.55-6.52-1.65s-3.23-2.63-4.22-4.6c-.99-1.97-1.48-4.26-1.48-6.88s.49-4.91,1.48-6.88c.99-1.97,2.39-3.51,4.22-4.6s4-1.64,6.52-1.64,4.69.55,6.52,1.64c1.83,1.1,3.23,2.63,4.22,4.6.99,1.97,1.48,4.26,1.48,6.88s-.49,4.91-1.48,6.88c-.99,1.97-2.39,3.51-4.22,4.6-1.83,1.1-4,1.65-6.52,1.65ZM613.2,133.21c1.6.02,2.93-.32,3.99-1.03s1.86-1.72,2.39-3.03.8-2.83.8-4.58-.27-3.27-.8-4.55c-.53-1.28-1.33-2.28-2.39-2.99-1.06-.71-2.39-1.08-3.99-1.1s-2.93.32-3.99,1.03c-1.06.71-1.86,1.72-2.39,3.03-.53,1.31-.8,2.83-.8,4.58s.27,3.27.8,4.55c.53,1.28,1.33,2.28,2.39,2.99,1.06.71,2.39,1.08,3.99,1.1Z"/>
        <path class="cls-9" d="M278.78,185.17v-25.2h8.16c.2,0,.61,0,1.22.02s1.21.05,1.79.12c2.03.24,3.75.95,5.16,2.12,1.41,1.17,2.49,2.65,3.22,4.45.74,1.8,1.1,3.76,1.1,5.9s-.37,4.1-1.1,5.9c-.73,1.8-1.81,3.28-3.22,4.44-1.41,1.17-3.13,1.87-5.16,2.12-.57.07-1.17.11-1.79.12s-1.03.02-1.22.02h-8.16ZM283.61,180.69h3.33c.31,0,.74,0,1.28-.03.54-.02,1.02-.07,1.45-.15,1.1-.22,1.99-.73,2.69-1.54.69-.8,1.21-1.77,1.54-2.9.33-1.13.5-2.3.5-3.5,0-1.26-.17-2.46-.52-3.59-.34-1.13-.87-2.09-1.57-2.87-.7-.78-1.58-1.28-2.64-1.49-.43-.09-.92-.15-1.45-.16-.54-.01-.96-.02-1.28-.02h-3.33v16.24Z"/>
        <path class="cls-9" d="M316.19,185.69c-2.52,0-4.69-.55-6.52-1.65s-3.23-2.63-4.22-4.6c-.99-1.97-1.48-4.26-1.48-6.88s.49-4.91,1.48-6.88c.99-1.97,2.39-3.51,4.22-4.6s4-1.64,6.52-1.64,4.69.55,6.52,1.64c1.83,1.1,3.23,2.63,4.22,4.6.99,1.97,1.48,4.26,1.48,6.88s-.49,4.91-1.48,6.88c-.99,1.97-2.39,3.51-4.22,4.6-1.83,1.1-4,1.65-6.52,1.65ZM316.19,181.21c1.6.02,2.93-.32,3.99-1.03s1.86-1.72,2.39-3.03.8-2.83.8-4.58-.27-3.27-.8-4.55c-.53-1.28-1.33-2.28-2.39-2.99-1.06-.71-2.39-1.08-3.99-1.1s-2.93.32-3.99,1.03c-1.06.71-1.86,1.72-2.39,3.03-.53,1.31-.8,2.83-.8,4.58s.27,3.27.8,4.55c.53,1.28,1.33,2.28,2.39,2.99,1.06.71,2.39,1.08,3.99,1.1Z"/>
        <path class="cls-9" d="M344.47,185.69c-2.52,0-4.69-.55-6.52-1.65s-3.23-2.63-4.22-4.6c-.99-1.97-1.48-4.26-1.48-6.88s.49-4.91,1.48-6.88c.99-1.97,2.39-3.51,4.22-4.6s4-1.64,6.52-1.64c2.89,0,5.32.72,7.29,2.15,1.97,1.43,3.35,3.38,4.16,5.83l-4.79,1.33c-.47-1.53-1.25-2.71-2.36-3.56-1.11-.85-2.54-1.27-4.29-1.27-1.6,0-2.93.36-4,1.07-1.07.71-1.87,1.71-2.41,3.01-.54,1.3-.81,2.82-.81,4.57s.27,3.27.81,4.57c.54,1.29,1.34,2.3,2.41,3.01s2.4,1.07,4,1.07c1.75,0,3.18-.43,4.29-1.28s1.9-2.04,2.36-3.55l4.79,1.33c-.8,2.45-2.19,4.39-4.16,5.83-1.97,1.44-4.4,2.15-7.29,2.15Z"/>
        <path class="cls-9" d="M361.51,185.17v-25.2h16.45v4.45h-11.69v5.39h9.59v4.45h-9.59v6.47h11.69v4.45h-16.45Z"/>
        <path class="cls-9" d="M383.91,185.17v-25.2h4.83l10.96,16.8v-16.8h4.83v25.2h-4.83l-10.96-16.8v16.8h-4.83Z"/>
        <path class="cls-9" d="M417.02,185.17v-20.75h-7.95v-4.45h20.65v4.45h-7.95v20.75h-4.76Z"/>
        <path class="cls-9" d="M434.28,185.17v-25.2h16.45v4.45h-11.69v5.39h9.59v4.45h-9.59v6.47h11.69v4.45h-16.45Z"/>
      </g>
    </g>
  </g>
</svg>