<?xml version="1.0" encoding="UTF-8"?>
<svg id="Capa_2" data-name="Capa 2" xmlns="http://www.w3.org/2000/svg" xmlns:xlink="http://www.w3.org/1999/xlink" viewBox="0 0 262.22 334.75">
  <defs>
    <style>
      .cls-1, .cls-2, .cls-3, .cls-4, .cls-5, .cls-6 {
        stroke: #fff;
        stroke-miterlimit: 10;
      }

      .cls-1, .cls-2, .cls-7, .cls-5 {
        fill: none;
      }

      .cls-1, .cls-4 {
        stroke-width: 2.59px;
      }

      .cls-2 {
        stroke-width: 1.74px;
      }

      .cls-3 {
        stroke-width: 1.73px;
      }

      .cls-3, .cls-8, .cls-4, .cls-9, .cls-10 {
        fill: #1f2a44;
      }

      .cls-11, .cls-6 {
        fill: #fff;
      }

      .cls-12 {
        clip-path: url(#clippath-1);
      }

      .cls-8 {
        letter-spacing: .05em;
      }

      .cls-8, .cls-9 {
        font-family: Manrope-ExtraBold, Manrope;
        font-size: 164.97px;
        font-weight: 700;
      }

      .cls-5 {
        stroke-width: .86px;
      }

      .cls-9 {
        letter-spacing: .05em;
      }

      .cls-6 {
        stroke-width: 1.73px;
      }

      .cls-13 {
        clip-path: url(#clippath);
      }
    </style>
    <clipPath id="clippath">
      <rect class="cls-4" x="121.18" y="15.05" width="138.79" height="277.59"/>
    </clipPath>
    <clipPath id="clippath-1">
      <rect class="cls-7" x="121.61" y="15.05" width="138.19" height="141.38"/>
    </clipPath>
  </defs>
  <g id="Capa_1-2" data-name="Capa 1">
    <g>
      <g>
        <rect class="cls-10" x="121.18" y="15.05" width="138.79" height="277.59"/>
        <g class="cls-13">
          <path class="cls-4" d="M260.92,14.88v278.02c0,.43-.35.86-.86.86H121.09c-.43,0-.86-.35-.86-.86V14.88c0-.43.35-.86.86-.86h138.97c.52,0,.86.35.86.86Z"/>
        </g>
        <rect class="cls-1" x="121.18" y="15.05" width="138.79" height="277.59"/>
      </g>
      <path class="cls-6" d="M143.1,156.79h46.3l2.07,37.67c0,.44.34.79.86.79h5.77l1.03,19.14h-24.53v-15.64c0-4.72-3.79-8.56-8.43-8.56s-8.43,3.85-8.43,8.56v15.64h-24.53l1.03-19.14h5.77c.43,0,.77-.35.86-.79l2.24-37.67Z"/>
      <polygon class="cls-3" points="184.83 75.77 186.9 112.13 145.53 112.13 147.61 75.77 184.83 75.77"/>
      <circle class="cls-11" cx="166.26" cy="93.9" r="6.56"/>
      <g class="cls-12">
        <path class="cls-1" d="M144.86,112.28c-7.64-.05-15.27-.11-22.9-.16V15.65h137.33v27.38l-73.84,8.98v-9.76h4.58c.35,0,.69-.26.78-.6.09-.35,0-.69-.35-.95l-23.67-15.46c-.26-.17-.6-.17-.95,0l-23.67,15.46c-.35.17-.43.6-.35.95.09.35.43.6.78.6h4.58v26.86h-2.07c-1.92.46-3.25,1.91-3.28,3.28-.04,1.81,2.17,3.87,5.1,3.43-.69,12.15-1.37,24.31-2.06,36.46Z"/>
        <path class="cls-1" d="M185.44,69.12h2.07c1.81,0,3.28,1.47,3.28,3.28s-1.47,3.28-3.28,3.28l-2.37.29c.69,12.15,1.37,24.31,2.06,36.46,24.03-.13,48.05-.26,72.08-.39v-40.68l-73.84-8.98v6.74Z"/>
        <polygon class="cls-2" points="186.99 113.77 189.41 156.54 143.12 156.54 145.53 113.77 186.99 113.77"/>
        <circle class="cls-11" cx="166.26" cy="137.61" r="6.56"/>
      </g>
      <path class="cls-11" d="M207.22,236.85c7.8-2.98,11.53-8.93,11.7-18.77h-19.76l-23.92,21.58s24.51,0,31.97-2.81Z"/>
      <path class="cls-11" d="M201.54,241.11c-6.28,1.16-13.74,1.24-22.05,1.24h-57.5v49.53h102.2l-22.65-50.77Z"/>
      <path class="cls-11" d="M221.91,219.83c-.51,9.76-4.58,15.79-12.72,18.85-1.44.58-3.05.99-4.66,1.41l22.73,51.1h29.01l-34.35-71.36Z"/>
      <path class="cls-5" d="M173.95,55.12c-.26,0-.43-.09-.69-.17-.17-.17-.26-.35-.26-.6,0-3.71-3.11-6.74-6.82-6.74s-6.82,3.02-6.82,6.82v15.46h13.56v-9.67c0-.26.09-.43.26-.6.17-.17.43-.26.69-.17l85.33,10.36v-25.05l-85.25,10.36Z"/>
      <text class="cls-8" transform="translate(0 141.88)"><tspan x="0" y="0">E</tspan></text>
      <text class="cls-9" transform="translate(0 282.78)"><tspan x="0" y="0">D</tspan></text>
      <path class="cls-11" d="M141.99,41.65c-.19-.53,1.12-1.46,1.76-1.91,3.8-2.64,15.58-10,19.11-12.2,1.13-.81,2.25-1.62,3.38-2.43,4.14,2.82,8.28,5.64,12.42,8.45,8.29,4.41,12.23,7.13,11.83,8.16-.23.6-1.95.63-5.15.07.02,3.97.05,7.94.07,11.91-4.04.42-8.09.83-12.13,1.25.02-.24.3-3.9-2.65-6.17-3.05-2.36-6.65-.98-6.91-.88-3.43,1.38-4.27,4.84-4.34,5.15-.53,3.93-.75,8.46-.29,13.45.11,1.24.26,2.45.44,3.6,4.48-.02,8.97-.05,13.45-.07.07-3.48.15-6.96.22-10.44l12.2,1.53c-.05,2.75-.1,5.5-.15,8.25,1.69-.63,3.51-.15,4.48,1.1.75.97,1.07,2.49.44,3.53-.87,1.43-3.2,1.47-4.34,1.47-4.5.02-19.02-.05-38.74-.29-1.51.86-3.25.69-4.19-.29-.9-.94-.77-2.3-.74-2.57.02-.14.17-1.34,1.18-2.21,1.65-1.41,4-.65,4.19-.59.03-4.4.01-8.91-.07-13.52-.09-4.66-.24-9.22-.44-13.67-.7-.09-1.71-.21-2.94-.29-1.38-.09-2.02-.06-2.13-.37Z"/>
      <rect class="cls-11" x="184.92" y="47.85" width="74.03" height="1.65" transform="translate(-4.28 27.43) rotate(-7.01)"/>
      <rect class="cls-11" x="184.99" y="65.19" width="74.03" height="1.65" transform="translate(8.67 -24.16) rotate(6.35)"/>
    </g>
  </g>
</svg>