<?xml version="1.0" encoding="UTF-8"?>
<svg id="Capa_2" data-name="Capa 2" xmlns="http://www.w3.org/2000/svg" xmlns:xlink="http://www.w3.org/1999/xlink" viewBox="0 0 212.28 232.99">
  <defs>
    <style>
      .cls-1, .cls-2, .cls-3 {
        fill: none;
      }

      .cls-4 {
        clip-path: url(#clippath-1);
      }

      .cls-2 {
        stroke-width: 7.16px;
      }

      .cls-2, .cls-5, .cls-3, .cls-6, .cls-7 {
        stroke: #1f2a44;
      }

      .cls-5, .cls-3, .cls-6, .cls-7 {
        stroke-miterlimit: 10;
      }

      .cls-5, .cls-6 {
        stroke-width: 2.15px;
      }

      .cls-5, .cls-8 {
        fill: #1f2a44;
      }

      .cls-3 {
        stroke-width: 1.08px;
      }

      .cls-6, .cls-7 {
        fill: #fff;
      }

      .cls-9 {
        clip-path: url(#clippath-2);
      }

      .cls-10 {
        clip-path: url(#clippath);
      }

      .cls-7 {
        stroke-width: 1.43px;
      }
    </style>
    <clipPath id="clippath">
      <rect class="cls-8" x="94.03" y="1.95" width="115.1" height="230.19"/>
    </clipPath>
    <clipPath id="clippath-1">
      <rect class="cls-1" x="96.22" y="1.4" width="114.59" height="117.24"/>
    </clipPath>
    <clipPath id="clippath-2">
      <rect class="cls-3" x="95" y=".54" width="116.74" height="231.91"/>
    </clipPath>
  </defs>
  <g id="Capa_1-2" data-name="Capa 1">
    <g>
      <path class="cls-8" d="M82.22,41.94v18.34H18.34v27.79h63.81v18.41H0V41.87h82.22v.07ZM0,18.95V.54h82.15v18.41H0Z"/>
      <path class="cls-8" d="M.03,126.45h32.95c7.31,0,14.18,1.36,20.56,4.23,6.45,2.72,12.1,6.59,16.83,11.39,4.73,4.8,8.59,10.39,11.32,16.83,2.72,6.45,4.15,13.25,4.15,20.56s-1.36,14.18-4.23,20.56c-2.72,6.45-6.59,12.1-11.32,16.83-4.73,4.73-10.39,8.59-16.83,11.32-6.45,2.72-13.32,4.23-20.56,4.23H.03v-64.82h18.34v46.34h14.47c4.73,0,9.17-.93,13.39-2.65,4.23-1.86,7.81-4.3,10.96-7.45,3.15-3.15,5.59-6.8,7.45-11.03s2.65-8.74,2.65-13.46-.93-9.24-2.65-13.46c-1.86-4.23-4.3-7.88-7.45-11.03-3.15-3.15-6.73-5.59-10.96-7.45s-8.67-2.58-13.39-2.58H.03v-18.34Z"/>
      <g>
        <rect class="cls-8" x="94.03" y="1.95" width="115.1" height="230.19"/>
        <g class="cls-10">
          <path class="cls-8" d="M209.91,1.81v230.55c0,.36-.29.72-.72.72h-115.24c-.36,0-.72-.29-.72-.72V1.81c0-.36.29-.72.72-.72h115.24c.43,0,.72.29.72.72Z"/>
        </g>
      </g>
      <path class="cls-6" d="M113.98,119.5h38.53l1.72,30.87c0,.36.29.64.72.64h4.8l.86,15.69h-20.41v-12.82c0-3.87-3.15-7.02-7.02-7.02s-7.02,3.15-7.02,7.02v12.82h-20.41l.86-15.69h4.8c.36,0,.64-.29.72-.64l1.86-30.87ZM148.65,51.75l1.72,30.15h-34.31l1.72-30.15h30.87ZM138.69,66.79c0-3.01-2.44-5.44-5.44-5.44s-5.44,2.44-5.44,5.44,2.44,5.44,5.44,5.44c3.01,0,5.44-2.44,5.44-5.44Z"/>
      <g class="cls-4">
        <path class="cls-6" d="M114.7,81.9h-18.19V1.9h113.88v22.7l-61.24,7.45v-8.09h3.8c.29,0,.57-.21.64-.5.07-.29,0-.57-.29-.79l-19.62-12.82c-.21-.14-.5-.14-.79,0l-19.62,12.82c-.29.14-.36.5-.29.79s.36.5.64.5h3.8v22.27h-1.72c-1.5,0-2.72,1.22-2.72,2.72s1.22,2.72,2.72,2.72h.79l-1.79,30.22Z"/>
        <path class="cls-6" d="M149.15,46.23h1.72c1.5,0,2.72,1.22,2.72,2.72s-1.22,2.72-2.72,2.72h-.79l1.72,30.15h58.59v-33.73l-61.24-7.45v5.59h0Z"/>
        <polygon class="cls-6" points="150.44 83.26 152.44 118.14 114.05 118.14 116.06 83.26 150.44 83.26"/>
        <circle class="cls-5" cx="133.25" cy="103.03" r="5.44"/>
      </g>
      <path class="cls-7" d="M168.49,184.32c6.59-2.58,9.74-7.74,9.88-16.26h-16.69l-20.2,18.69s20.7,0,27-2.44ZM163.69,187.11c-5.3,1-11.6,1.07-18.62,1.07h-48.56v42.9h86.3l-19.12-43.98ZM179.89,170.25c-.07,1.76-.51,6.77-4.22,10.83-2.48,2.71-5.53,4.05-6.68,4.52-1.22.5-2.58.86-3.94,1.22l19.19,44.26h24.49l-28.85-60.84ZM139.62,34.63c-.21,0-.36-.07-.57-.14-.14-.14-.21-.29-.21-.5,0-3.08-2.58-5.59-5.66-5.59s-5.66,2.51-5.66,5.66v12.82h11.24v-8.02c0-.21.07-.36.21-.5.14-.14.36-.21.57-.14l70.76,8.59v-20.77l-70.69,8.59Z"/>
      <g>
        <g class="cls-9">
          <path class="cls-2" d="M95,.54v231.91h116.81V.54h-116.81"/>
        </g>
        <rect class="cls-3" x="95" y=".54" width="116.74" height="231.91"/>
      </g>
    </g>
  </g>
</svg>