<?xml version="1.0" encoding="UTF-8"?>
<svg id="Capa_2" data-name="Capa 2" xmlns="http://www.w3.org/2000/svg" xmlns:xlink="http://www.w3.org/1999/xlink" viewBox="0 0 619.16 328.31">
  <defs>
    <style>
      .cls-1, .cls-2 {
        fill: #fff;
      }

      .cls-3, .cls-4, .cls-5, .cls-6 {
        fill: none;
      }

      .cls-3, .cls-5, .cls-2, .cls-7, .cls-8, .cls-6 {
        stroke: #fff;
        stroke-miterlimit: 10;
      }

      .cls-3, .cls-7 {
        stroke-width: 2.54px;
      }

      .cls-9 {
        font-family: Manrope-ExtraBold, Manrope;
        font-size: 161.8px;
        font-weight: 700;
        letter-spacing: .05em;
      }

      .cls-9, .cls-7, .cls-8, .cls-10 {
        fill: #1f2a44;
      }

      .cls-5, .cls-8 {
        stroke-width: 1.69px;
      }

      .cls-11 {
        clip-path: url(#clippath-1);
      }

      .cls-2 {
        stroke-width: 1.7px;
      }

      .cls-6 {
        stroke-width: .85px;
      }

      .cls-12 {
        fill: #4a6fa5;
      }

      .cls-13 {
        clip-path: url(#clippath);
      }
    </style>
    <clipPath id="clippath">
      <rect class="cls-7" x="118.85" y="14.76" width="136.12" height="272.25"/>
    </clipPath>
    <clipPath id="clippath-1">
      <rect class="cls-4" x="119.27" y="14.76" width="135.53" height="138.67"/>
    </clipPath>
  </defs>
  <g id="Capa_1-2" data-name="Capa 1">
    <g>
      <g>
        <path class="cls-10" d="M272.53,151.9v-25.2h16.45v4.45h-11.69v5.39h9.59v4.45h-9.59v6.47h11.69v4.45h-16.45Z"/>
        <path class="cls-10" d="M294.93,151.9v-25.2h4.27l8.33,16.73,8.33-16.73h4.27v25.2h-4.45v-15.05l-7.32,15.05h-1.68l-7.32-15.05v15.05h-4.44Z"/>
        <path class="cls-10" d="M326.78,151.9v-25.2h10.64c.25,0,.57,0,.99.03.41.02.78.06,1.11.11,1.5.23,2.74.73,3.7,1.49.96.76,1.67,1.71,2.13,2.86s.68,2.43.68,3.84-.23,2.69-.69,3.84c-.46,1.15-1.17,2.1-2.13,2.86-.96.76-2.19,1.25-3.68,1.49-.33.05-.7.08-1.12.1s-.75.04-.98.04h-5.88v8.54h-4.76ZM331.54,138.92h5.67c.25,0,.51-.01.8-.03.29-.02.56-.07.81-.14.64-.17,1.14-.47,1.49-.88s.59-.88.73-1.38c.13-.51.2-.99.2-1.44s-.07-.94-.2-1.44c-.13-.51-.38-.97-.73-1.38s-.85-.71-1.49-.88c-.25-.07-.51-.12-.81-.14-.29-.02-.56-.04-.8-.04h-5.67v7.77Z"/>
        <path class="cls-10" d="M362.09,152.43c-2.52,0-4.69-.55-6.52-1.65s-3.23-2.63-4.22-4.6c-.99-1.97-1.48-4.26-1.48-6.88s.49-4.91,1.48-6.88c.99-1.97,2.39-3.51,4.22-4.6s4-1.64,6.52-1.64,4.69.55,6.52,1.64c1.83,1.1,3.23,2.63,4.22,4.6.99,1.97,1.48,4.26,1.48,6.88s-.49,4.91-1.48,6.88c-.99,1.97-2.39,3.51-4.22,4.6-1.83,1.1-4,1.65-6.52,1.65ZM362.09,147.95c1.6.02,2.93-.32,3.99-1.03s1.86-1.72,2.39-3.03.8-2.83.8-4.58-.27-3.27-.8-4.55c-.53-1.28-1.33-2.28-2.39-2.99-1.06-.71-2.39-1.08-3.99-1.1s-2.93.32-3.99,1.03c-1.06.71-1.86,1.72-2.39,3.03-.53,1.31-.8,2.83-.8,4.58s.27,3.27.8,4.55c.53,1.28,1.33,2.28,2.39,2.99,1.06.71,2.39,1.08,3.99,1.1Z"/>
        <path class="cls-10" d="M379.56,151.9v-25.2h8.16c.2,0,.61,0,1.22.02s1.21.05,1.79.12c2.03.24,3.75.95,5.16,2.12,1.41,1.17,2.49,2.65,3.22,4.45.74,1.8,1.1,3.76,1.1,5.9s-.37,4.1-1.1,5.9c-.73,1.8-1.81,3.28-3.22,4.44-1.41,1.17-3.13,1.87-5.16,2.12-.57.07-1.17.11-1.79.12s-1.03.02-1.22.02h-8.16ZM384.39,147.42h3.33c.31,0,.74,0,1.28-.03.54-.02,1.02-.07,1.45-.15,1.1-.22,1.99-.73,2.69-1.54.69-.8,1.21-1.77,1.54-2.9.33-1.13.5-2.3.5-3.5,0-1.26-.17-2.46-.52-3.59-.34-1.13-.87-2.09-1.57-2.87-.7-.78-1.58-1.28-2.64-1.49-.43-.09-.92-.15-1.45-.16-.54-.01-.96-.02-1.28-.02h-3.33v16.24Z"/>
        <path class="cls-10" d="M406.16,151.9v-25.2h16.45v4.45h-11.69v5.39h9.59v4.45h-9.59v6.47h11.69v4.45h-16.45Z"/>
        <path class="cls-10" d="M428.55,151.9v-25.2h10.64c.25,0,.57,0,.99.03.41.02.78.06,1.11.11,1.5.23,2.74.73,3.7,1.49.96.76,1.67,1.71,2.13,2.86s.68,2.43.68,3.84c0,2.11-.53,3.92-1.58,5.42-1.05,1.5-2.7,2.42-4.93,2.77l-2.1.14h-5.88v8.54h-4.76ZM433.31,138.92h5.67c.25,0,.51-.01.8-.03.29-.02.56-.07.81-.14.64-.17,1.14-.47,1.49-.88s.59-.88.73-1.38c.13-.51.2-.99.2-1.44s-.07-.94-.2-1.44c-.13-.51-.38-.97-.73-1.38s-.85-.71-1.49-.88c-.25-.07-.51-.12-.81-.14-.29-.02-.56-.04-.8-.04h-5.67v7.77ZM442.76,151.9l-4.97-10.25,4.9-.95,5.46,11.2h-5.39Z"/>
        <path class="cls-10" d="M452,151.9l7.7-25.2h7.1l7.7,25.2h-4.9l-6.86-22.22h.91l-6.76,22.22h-4.9ZM456.62,146.65v-4.45h13.3v4.45h-13.3Z"/>
        <path class="cls-10" d="M479.41,151.9v-25.2h4.27l8.33,16.73,8.33-16.73h4.27v25.2h-4.45v-15.05l-7.32,15.05h-1.68l-7.32-15.05v15.05h-4.44Z"/>
        <path class="cls-10" d="M511.61,151.9v-25.2h4.76v25.2h-4.76Z"/>
        <path class="cls-10" d="M523.37,151.9v-25.2h16.45v4.45h-11.69v5.39h9.59v4.45h-9.59v6.47h11.69v4.45h-16.45Z"/>
        <path class="cls-10" d="M545.77,151.9v-25.2h4.83l10.96,16.8v-16.8h4.83v25.2h-4.83l-10.96-16.8v16.8h-4.83Z"/>
        <path class="cls-10" d="M578.88,151.9v-20.75h-7.95v-4.45h20.65v4.45h-7.95v20.75h-4.76Z"/>
        <path class="cls-10" d="M606.95,152.43c-2.52,0-4.69-.55-6.52-1.65s-3.23-2.63-4.22-4.6c-.99-1.97-1.48-4.26-1.48-6.88s.49-4.91,1.48-6.88c.99-1.97,2.39-3.51,4.22-4.6s4-1.64,6.52-1.64,4.69.55,6.52,1.64c1.83,1.1,3.23,2.63,4.22,4.6.99,1.97,1.48,4.26,1.48,6.88s-.49,4.91-1.48,6.88c-.99,1.97-2.39,3.51-4.22,4.6-1.83,1.1-4,1.65-6.52,1.65ZM606.95,147.95c1.6.02,2.93-.32,3.99-1.03s1.86-1.72,2.39-3.03.8-2.83.8-4.58-.27-3.27-.8-4.55c-.53-1.28-1.33-2.28-2.39-2.99-1.06-.71-2.39-1.08-3.99-1.1s-2.93.32-3.99,1.03c-1.06.71-1.86,1.72-2.39,3.03-.53,1.31-.8,2.83-.8,4.58s.27,3.27.8,4.55c.53,1.28,1.33,2.28,2.39,2.99,1.06.71,2.39,1.08,3.99,1.1Z"/>
        <path class="cls-12" d="M272.53,192.56v-25.2h8.16c.2,0,.61,0,1.22.02s1.21.05,1.79.12c2.03.24,3.75.95,5.16,2.12,1.41,1.17,2.49,2.65,3.22,4.45.74,1.8,1.1,3.76,1.1,5.9s-.37,4.1-1.1,5.9c-.73,1.8-1.81,3.28-3.22,4.44-1.41,1.17-3.13,1.87-5.16,2.12-.57.07-1.17.11-1.79.12s-1.03.02-1.22.02h-8.16ZM277.36,188.08h3.33c.31,0,.74,0,1.28-.03.54-.02,1.02-.07,1.45-.15,1.1-.22,1.99-.73,2.69-1.54.69-.8,1.21-1.77,1.54-2.9.33-1.13.5-2.3.5-3.5,0-1.26-.17-2.46-.52-3.59-.34-1.13-.87-2.09-1.57-2.87-.7-.78-1.58-1.28-2.64-1.49-.43-.09-.92-.15-1.45-.16-.54-.01-.96-.02-1.28-.02h-3.33v16.24Z"/>
        <path class="cls-12" d="M309.94,193.09c-2.52,0-4.69-.55-6.52-1.65s-3.23-2.63-4.22-4.6c-.99-1.97-1.48-4.26-1.48-6.88s.49-4.91,1.48-6.88c.99-1.97,2.39-3.51,4.22-4.6s4-1.64,6.52-1.64,4.69.55,6.52,1.64c1.83,1.1,3.23,2.63,4.22,4.6.99,1.97,1.48,4.26,1.48,6.88s-.49,4.91-1.48,6.88c-.99,1.97-2.39,3.51-4.22,4.6-1.83,1.1-4,1.65-6.52,1.65ZM309.94,188.61c1.6.02,2.93-.32,3.99-1.03s1.86-1.72,2.39-3.03.8-2.83.8-4.58-.27-3.27-.8-4.55c-.53-1.28-1.33-2.28-2.39-2.99-1.06-.71-2.39-1.08-3.99-1.1s-2.93.32-3.99,1.03c-1.06.71-1.86,1.72-2.39,3.03-.53,1.31-.8,2.83-.8,4.58s.27,3.27.8,4.55c.53,1.28,1.33,2.28,2.39,2.99,1.06.71,2.39,1.08,3.99,1.1Z"/>
        <path class="cls-12" d="M338.22,193.09c-2.52,0-4.69-.55-6.52-1.65s-3.23-2.63-4.22-4.6c-.99-1.97-1.48-4.26-1.48-6.88s.49-4.91,1.48-6.88c.99-1.97,2.39-3.51,4.22-4.6s4-1.64,6.52-1.64c2.89,0,5.32.72,7.29,2.15,1.97,1.43,3.35,3.38,4.16,5.83l-4.79,1.33c-.47-1.53-1.25-2.71-2.36-3.56-1.11-.85-2.54-1.27-4.29-1.27-1.6,0-2.93.36-4,1.07-1.07.71-1.87,1.71-2.41,3.01-.54,1.3-.81,2.82-.81,4.57s.27,3.27.81,4.57c.54,1.29,1.34,2.3,2.41,3.01s2.4,1.07,4,1.07c1.75,0,3.18-.43,4.29-1.28s1.9-2.04,2.36-3.55l4.79,1.33c-.8,2.45-2.19,4.39-4.16,5.83-1.97,1.44-4.4,2.15-7.29,2.15Z"/>
        <path class="cls-12" d="M355.27,192.56v-25.2h16.45v4.45h-11.69v5.39h9.59v4.45h-9.59v6.47h11.69v4.45h-16.45Z"/>
        <path class="cls-12" d="M377.67,192.56v-25.2h4.83l10.96,16.8v-16.8h4.83v25.2h-4.83l-10.96-16.8v16.8h-4.83Z"/>
        <path class="cls-12" d="M410.77,192.56v-20.75h-7.95v-4.45h20.65v4.45h-7.95v20.75h-4.76Z"/>
        <path class="cls-12" d="M428.03,192.56v-25.2h16.45v4.45h-11.69v5.39h9.59v4.45h-9.59v6.47h11.69v4.45h-16.45Z"/>
      </g>
      <g>
        <rect class="cls-10" x="118.85" y="14.76" width="136.12" height="272.25"/>
        <g class="cls-13">
          <path class="cls-7" d="M255.9,14.59v272.67c0,.42-.34.85-.85.85H118.76c-.42,0-.85-.34-.85-.85V14.59c0-.42.34-.85.85-.85h136.29c.51,0,.85.34.85.85Z"/>
        </g>
        <rect class="cls-3" x="118.85" y="14.76" width="136.12" height="272.25"/>
      </g>
      <path class="cls-2" d="M140.28,154.12h45.57l2.03,36.72c0,.43.34.77.85.77h5.68l1.02,18.66h-24.14v-15.25c0-4.6-3.73-8.35-8.3-8.35s-8.3,3.75-8.3,8.35v15.25h-24.14l1.02-18.66h5.68c.42,0,.76-.34.85-.77l2.2-36.72Z"/>
      <polygon class="cls-8" points="181.28 74.31 183.31 109.97 142.73 109.97 144.77 74.31 181.28 74.31"/>
      <circle class="cls-1" cx="163.06" cy="92.1" r="6.44"/>
      <g class="cls-11">
        <path class="cls-3" d="M142.07,110.13c-7.49-.05-14.98-.1-22.46-.15V15.35h134.68v26.85l-72.42,8.81v-9.57h4.49c.34,0,.68-.25.76-.59.08-.34,0-.68-.34-.93l-23.21-15.16c-.25-.17-.59-.17-.93,0l-23.21,15.16c-.34.17-.42.59-.34.93.08.34.42.59.76.59h4.49v26.34h-2.03c-1.88.45-3.19,1.87-3.22,3.22-.04,1.77,2.13,3.8,5,3.36-.67,11.92-1.35,23.84-2.02,35.76Z"/>
        <path class="cls-3" d="M181.87,67.79h2.03c1.78,0,3.22,1.44,3.22,3.22s-1.44,3.22-3.22,3.22l-2.32.29c.67,11.92,1.35,23.84,2.02,35.76,23.57-.13,47.13-.26,70.7-.38v-39.9l-72.42-8.81v6.61Z"/>
        <polygon class="cls-5" points="183.39 111.58 185.77 152.83 140.36 152.83 142.73 111.58 183.39 111.58"/>
        <circle class="cls-1" cx="163.06" cy="134.96" r="6.44"/>
      </g>
      <path class="cls-1" d="M203.24,232.3c7.65-2.92,11.31-8.76,11.48-18.41h-19.38l-23.46,21.17s24.04,0,31.36-2.76Z"/>
      <path class="cls-1" d="M197.67,236.47c-6.16,1.14-13.48,1.22-21.63,1.22h-56.4v48.58h100.23l-22.21-49.8Z"/>
      <path class="cls-1" d="M217.65,215.61c-.5,9.57-4.49,15.49-12.48,18.49-1.41.57-2.99.97-4.57,1.38l22.29,50.12h28.45l-33.69-69.99Z"/>
      <path class="cls-6" d="M170.6,54.06c-.25,0-.42-.08-.68-.17-.17-.17-.25-.34-.25-.59,0-3.64-3.05-6.61-6.69-6.61s-6.69,2.96-6.69,6.69v15.16h13.3v-9.49c0-.25.08-.42.25-.59.17-.17.42-.25.68-.17l83.69,10.16v-24.57l-83.61,10.16Z"/>
      <text class="cls-9" transform="translate(0 139.15)"><tspan x="0" y="0">E</tspan></text>
      <text class="cls-9" transform="translate(0 277.34)"><tspan x="0" y="0">D</tspan></text>
      <path class="cls-1" d="M139.26,40.85c-.19-.52,1.09-1.43,1.73-1.87,3.73-2.59,15.28-9.8,18.74-11.97,1.11-.79,2.21-1.59,3.32-2.38,4.06,2.76,8.12,5.53,12.18,8.29,8.13,4.33,12,6.99,11.61,8-.23.59-1.91.61-5.05.07.02,3.89.05,7.79.07,11.68-3.97.41-7.93.82-11.89,1.23.02-.24.29-3.82-2.6-6.06-2.99-2.31-6.53-.97-6.78-.87-3.36,1.35-4.19,4.74-4.25,5.05-.52,3.85-.74,8.3-.29,13.19.11,1.22.26,2.4.43,3.53,4.4-.02,8.8-.05,13.19-.07.07-3.41.14-6.82.22-10.24,3.99.5,7.98,1,11.97,1.5-.05,2.7-.1,5.39-.14,8.09,1.66-.61,3.44-.15,4.4,1.08.74.95,1.05,2.44.43,3.46-.85,1.4-3.14,1.44-4.25,1.44-4.41.02-18.66-.05-37.99-.29-1.48.85-3.18.68-4.11-.29-.88-.92-.75-2.26-.72-2.52.02-.13.16-1.32,1.15-2.16,1.62-1.38,3.92-.64,4.11-.58.03-4.32.01-8.74-.07-13.26-.09-4.57-.23-9.05-.43-13.41-.68-.09-1.68-.21-2.88-.29-1.36-.09-1.98-.06-2.09-.36Z"/>
      <rect class="cls-1" x="181.36" y="46.93" width="72.61" height="1.62" transform="translate(-4.2 26.91) rotate(-7.01)"/>
      <rect class="cls-1" x="181.43" y="63.94" width="72.61" height="1.62" transform="translate(8.5 -23.7) rotate(6.35)"/>
    </g>
  </g>
</svg>