<svg xmlns="http://www.w3.org/2000/svg" id="Grupo_22881" data-name="Grupo 22881" viewBox="0 0 253.288 60"><path id="Trazado_8080" data-name="Trazado 8080" d="M36.066-189.737A12.563,12.563,0,0,1,23.5-177.175,12.563,12.563,0,0,1,10.94-189.737,12.563,12.563,0,0,1,23.5-202.3a12.563,12.563,0,0,1,12.563,12.563" transform="translate(68.89 202.3)" fill="#1f2d4d" /><g id="Grupo_21847" data-name="Grupo 21847" transform="translate(0 0)"><rect id="Rectángulo_56445" data-name="Rectángulo 56445" width="20.509" height="59.351" transform="translate(55.891 0.293)" fill="#1f2d4d" /><rect id="Rectángulo_56446" data-name="Rectángulo 56446" width="20.509" height="59.233" transform="translate(0 0.293)" fill="#1f2d4d" /><path id="Trazado_8081" data-name="Trazado 8081" d="M-10.146-189.737a12.563,12.563,0,0,1-12.563,12.562,12.563,12.563,0,0,1-12.564-12.562A12.563,12.563,0,0,1-22.708-202.3a12.563,12.563,0,0,1,12.563,12.563" transform="translate(59.27 202.3)" fill="#1f2d4d" /><path id="Trazado_8082" data-name="Trazado 8082" d="M58.829-161.743a3.249,3.249,0,0,0,3.358-3.356,3.249,3.249,0,0,0-3.358-3.358H53.352v6.714ZM48.052-173.4H59.005c5.3,0,8.658,3.356,8.658,8.3,0,5.653-4.241,7.243-4.241,7.243l5.124,9.187H62.716L58.3-156.8H53.352v8.126h-5.3Z" transform="translate(76.616 208.315)" fill="#1f2d4d" /><path id="Trazado_8083" data-name="Trazado 8083" d="M79.5-158.544a4.417,4.417,0,0,0-4.417-4.593,4.417,4.417,0,0,0-4.417,4.593,4.418,4.418,0,0,0,4.417,4.594,4.418,4.418,0,0,0,4.417-4.594m-4.417-9.01a9.087,9.087,0,0,1,9.187,9.01,9.086,9.086,0,0,1-9.187,9.009,9.086,9.086,0,0,1-9.187-9.009,9.087,9.087,0,0,1,9.187-9.01" transform="translate(80.33 209.533)" fill="#1f2d4d" /><path id="Trazado_8084" data-name="Trazado 8084" d="M99.287-153.067a8.839,8.839,0,0,1-7.243,3.534,9.087,9.087,0,0,1-9.187-9.011,9.087,9.087,0,0,1,9.187-9.01,8.839,8.839,0,0,1,7.243,3.534l-3,3a5.723,5.723,0,0,0-4.239-2.12,4.417,4.417,0,0,0-4.417,4.593,4.418,4.418,0,0,0,4.417,4.594,5.723,5.723,0,0,0,4.239-2.12Z" transform="translate(83.861 209.533)" fill="#1f2d4d" /><path id="Trazado_8085" data-name="Trazado 8085" d="M113.91-153.067a8.839,8.839,0,0,1-7.243,3.534,9.087,9.087,0,0,1-9.187-9.011,9.087,9.087,0,0,1,9.187-9.01,8.839,8.839,0,0,1,7.243,3.534l-3,3a5.723,5.723,0,0,0-4.239-2.12,4.417,4.417,0,0,0-4.417,4.593,4.418,4.418,0,0,0,4.417,4.594,5.723,5.723,0,0,0,4.239-2.12Z" transform="translate(86.905 209.533)" fill="#1f2d4d" /><path id="Trazado_8086" data-name="Trazado 8086" d="M123.141-157.659l-3.887.707c-1.237.211-1.943.883-1.943,1.766,0,1.059.706,1.766,2.119,1.766a3.668,3.668,0,0,0,3.71-3.887Zm0,5.653h-.176a6.593,6.593,0,0,1-5.124,2.473c-3.18,0-5.3-2.12-5.3-4.946s1.944-4.982,5.124-5.548l5.477-.99a2.792,2.792,0,0,0-3-2.3,5.136,5.136,0,0,0-3.887,1.944l-2.827-2.827a9.22,9.22,0,0,1,7.068-3.356c4.416,0,7.419,3,7.419,6.89v10.777h-4.77Z" transform="translate(90.04 209.533)" fill="#1f2d4d" /><path id="Trazado_8087" data-name="Trazado 8087" d="M58.755-190.358a3.247,3.247,0,0,0,3.356-3.355,3.248,3.248,0,0,0-3.356-3.356H53.278v6.711Zm-10.7-11.66H59.006c5.3,0,8.656,3.358,8.656,8.3,0,5.652-4.239,7.243-4.239,7.243l5.124,9.187H62.717L58.3-185.409H53.353v8.126h-5.3Z" transform="translate(76.616 202.359)" fill="#1f2d4d" /><path id="Trazado_8088" data-name="Trazado 8088" d="M79.5-187.158a4.417,4.417,0,0,0-4.417-4.593,4.417,4.417,0,0,0-4.417,4.593,4.418,4.418,0,0,0,4.417,4.593,4.418,4.418,0,0,0,4.417-4.593m-4.417-9.011a9.087,9.087,0,0,1,9.187,9.011,9.087,9.087,0,0,1-9.187,9.011,9.087,9.087,0,0,1-9.187-9.011,9.087,9.087,0,0,1,9.187-9.011" transform="translate(80.33 203.576)" fill="#1f2d4d" /><path id="Trazado_8089" data-name="Trazado 8089" d="M97.306-185.941a4.417,4.417,0,0,0-4.416-4.593,4.417,4.417,0,0,0-4.417,4.593,4.417,4.417,0,0,0,4.417,4.593,4.417,4.417,0,0,0,4.416-4.593M83.88-202.018h4.77v9.895h.176A6.68,6.68,0,0,1,94.3-194.95c4.063,0,7.772,3.71,7.772,9.009s-3.709,9.01-7.772,9.01a6.681,6.681,0,0,1-5.478-2.826H88.65v2.473H83.88Z" transform="translate(84.074 202.359)" fill="#1f2d4d" /><path id="Trazado_8090" data-name="Trazado 8090" d="M113.418-188.925a4.187,4.187,0,0,0-3.887-3,4.187,4.187,0,0,0-3.887,3Zm3.887,7.95a10.636,10.636,0,0,1-7.422,2.827,9.088,9.088,0,0,1-9.186-9.011,9.049,9.049,0,0,1,9.009-9.011,8.672,8.672,0,0,1,8.658,8.656,11.962,11.962,0,0,1-.176,2.121H105.644a4.449,4.449,0,0,0,4.592,3,6.164,6.164,0,0,0,4.593-1.943Z" transform="translate(87.575 203.576)" fill="#1f2d4d" /><path id="Trazado_8091" data-name="Trazado 8091" d="M117.953-195.815h4.77v2.473h.176a6.441,6.441,0,0,1,5.124-2.827h.354v5.124a5.565,5.565,0,0,0-1.591-.176c-2.3,0-4.063,1.766-4.063,4.593v8.126h-4.77Z" transform="translate(91.167 203.576)" fill="#1f2d4d" /><path id="Trazado_8092" data-name="Trazado 8092" d="M130.753-190.254h-3v-4.417h1.59c1.237,0,1.944-.707,1.944-2.119v-3.181h4.24v5.3h3.887v4.417h-3.887v5.831a2.188,2.188,0,0,0,2.3,2.473,5.832,5.832,0,0,0,1.944-.354v4.417a10.04,10.04,0,0,1-3.181.531c-3.533,0-5.829-2.3-5.829-6.36Z" transform="translate(93.206 202.785)" fill="#1f2d4d" /><path id="Trazado_8093" data-name="Trazado 8093" d="M152.907-187.158a4.417,4.417,0,0,0-4.417-4.593,4.417,4.417,0,0,0-4.417,4.593,4.418,4.418,0,0,0,4.417,4.593,4.417,4.417,0,0,0,4.417-4.593m-4.417-9.011a9.087,9.087,0,0,1,9.187,9.011,9.087,9.087,0,0,1-9.187,9.011,9.087,9.087,0,0,1-9.187-9.011,9.087,9.087,0,0,1,9.187-9.011" transform="translate(95.611 203.576)" fill="#1f2d4d" /></g></svg>