<svg aria-hidden="true" data-icon="techint-logo" xmlns="http://www.w3.org/2000/svg" viewBox="0 0 612 792"><path fill="#1f2d4d" fill-rule="evenodd" clip-rule="evenodd" d="M306.478 511.164h-126.83c-3.729 0-3.73-.003-3.732-3.624l-.068-114.846c-.002-3.483-.001-3.481 3.611-3.477 12.567.016 25.134-.043 37.699.102 2.584.03 3.217-.798 3.208-3.26-.121-32.54-.139-65.08-.204-97.619-.096-48.064-.208-96.127-.313-144.191-.008-3.67-.007-3.682-3.668-3.671-17.892.05-35.785.107-53.677.163-.582.002-1.165.032-1.747.02-1.991-.043-2.868.63-2.875 2.908a19546.72 19546.72 0 01-.458 84.58c-.084 11.708-.342 23.414-.422 35.122-.013 1.951-.61 2.59-2.579 2.584-20.306-.059-40.612.021-60.918-.057-21.714-.083-43.429-.295-65.143-.45-3.294-.023-3.297-.021-3.307-3.291-.046-16.811-.095-33.622-.134-50.433-.148-63.457-.292-126.914-.437-190.371-.008-3.622-.006-3.624 3.751-3.624 18.808 0 37.617-.016 56.425.003 166.77.162 333.541.33 500.311.497 3.426.003 3.43.005 3.43 3.417-.002 80.309-.004 160.619-.008 240.928 0 3.341-.005 3.345-3.249 3.345-18.059 0-36.118.057-54.177-.019-24.378-.101-48.755-.332-73.133-.418-2.227-.008-2.936-.708-2.802-2.873a458.49 458.49 0 00.696-15.639c.055-1.982-.33-3.974-.328-5.961.034-32.124.1-64.247.153-96.371.006-3.474-.007-3.498-3.435-3.502-22.221-.027-44.44-.045-66.661-.062-3.227-.002-3.245.009-3.246 3.383-.005 29.211-.003 58.422-.003 87.633v152.795c0 4.31.004 4.313 4.199 4.313 15.727.002 31.453 0 47.18.002 3.488 0 3.493.005 3.495 3.36.025 38.449.05 76.897.073 115.345.002 3.25-.004 3.258-3.35 3.258-42.441.002-84.884.001-127.327.001zM306.293 581.521H28.444c-3.837 0-3.838-.001-3.839-3.757-.001-3.494.061-6.991-.025-10.483-.042-1.734.605-2.468 2.334-2.308.743.068 1.497.01 2.246.01h554.697c.416 0 .833-.002 1.249 0 3.327.008 3.331.008 3.336 3.263.005 3.661-.062 7.324.026 10.983.042 1.739-.605 2.463-2.332 2.303-.742-.069-1.497-.011-2.245-.011H306.293zM306.75 599.985h277.845c3.846 0 3.848.002 3.849 3.742.001 3.495-.063 6.992.024 10.484.044 1.731-.592 2.477-2.325 2.309-.659-.063-1.33-.009-1.996-.009H28.956c-.749 0-1.501-.045-2.247.006-1.457.1-2.137-.467-2.118-2.004.051-4.159.049-8.321 0-12.48-.018-1.493.565-2.164 2.067-2.054.662.049 1.331.006 1.997.006H306.75zM306.485 634.946h278.104c3.851 0 3.853.001 3.854 3.742.001 3.495-.06 6.991.023 10.484.04 1.7-.543 2.504-2.3 2.35-.743-.065-1.497-.008-2.245-.008H28.959c-4.354 0-4.355-.001-4.354-4.257 0-3.412.038-6.825-.015-10.235-.022-1.473.522-2.186 2.043-2.082.745.05 1.497.006 2.246.006h277.606zM306.479 670.267h276.119c.832 0 1.664-.002 2.496.001 3.338.013 3.344.013 3.349 3.286.005 3.661-.058 7.324.025 10.983.037 1.689-.509 2.525-2.283 2.355-.659-.063-1.33-.01-1.996-.01H28.706c-.666 0-1.334-.038-1.997.006-1.453.097-2.137-.47-2.118-2.01.052-4.16.061-8.321-.003-12.481-.025-1.672.739-2.226 2.278-2.137.912.053 1.83.006 2.746.006l276.867.001zM281.653 739.564c-.001-6.073-.054-12.148.026-18.221.029-2.158-.544-3.11-2.963-3.058-5.565.12-4.904.784-4.947-4.825-.016-2.08.039-4.161-.011-6.24-.034-1.399.586-1.913 1.95-1.909 10.233.024 20.468.025 30.702.001 1.4-.004 1.925.604 1.906 1.96-.04 2.995-.051 5.991.007 8.985.028 1.468-.517 2.039-2.029 2.114-5.537.275-5.534.323-5.534 5.979 0 2.163.086 4.331-.023 6.488-.09 1.776.72 2.363 2.355 2.358 7.488-.022 14.976-.019 22.464-.008 1.533.003 2.238-.584 2.194-2.24-.095-3.574-.071-7.154-.012-10.731.022-1.405-.525-2.002-1.904-1.868-.081.008-.166 0-.249-.003-5.372-.205-5.373-.205-5.372-5.713 0-1.748.054-3.497-.014-5.242-.057-1.477.51-2.093 2.031-2.088 10.151.036 20.302.034 30.452.001 1.478-.005 2.117.529 2.089 2.043-.059 2.994-.06 5.991.001 8.985.03 1.534-.662 1.974-2.108 2.035-5.464.233-5.463.273-5.463 5.811.001 11.232.07 22.466-.053 33.696-.027 2.487.662 3.411 3.208 3.335 4.838-.146 4.33-.404 4.354 4.466.01 1.997-.092 3.999.027 5.989.113 1.884-.452 2.67-2.501 2.652-9.9-.086-19.802-.064-29.702-.015-1.665.009-2.454-.459-2.391-2.258.1-2.826.085-5.658.004-8.485-.047-1.659.483-2.373 2.263-2.425 5.314-.155 5.313-.221 5.313-5.563-.001-2.33-.059-4.661.017-6.988.047-1.462-.492-2.176-1.985-2.174-7.655.01-15.31.007-22.964-.004-1.438-.003-2.084.592-2.053 2.108.071 3.493.073 6.989-.002 10.482-.033 1.5.571 2.157 2.02 2.145.166-.002.333.009.498.018 5.168.247 5.169.248 5.168 5.517-.001 1.83-.037 3.661.003 5.491.031 1.436-.506 2.13-2.039 2.125a5712.815 5712.815 0 00-30.702-.003c-1.382.004-1.949-.549-1.928-1.932.046-3.078.043-6.157.002-9.235-.019-1.372.553-2.02 1.927-1.945.083.004.166-.001.25-.006 5.72-.306 5.72-.306 5.72-6.132 0-5.155 0-10.313-.002-15.473zM474.816 741.909c.069-.712.195-1.423.197-2.135.016-6.241-.052-12.483.043-18.724.03-2.016-.568-2.8-2.684-2.747-4.662.116-4.579.676-4.559-4.575.008-2.08.027-4.161.002-6.241-.018-1.393.455-2.18 2.013-2.175 9.071.027 18.142.025 27.212-.002 1.354-.004 1.991.491 1.974 1.894-.039 3.079-.04 6.158.001 9.237.019 1.395-.603 1.894-1.959 1.924-1.881.042-4.707-.427-5.409.554-1.015 1.418-.599 3.938-.603 5.988-.032 15.479-.06 30.957.028 46.436.014 2.275-.605 3.1-2.947 2.984-3.653-.178-7.33.104-10.978-.127-1.305-.082-2.938-.753-3.766-1.718-9.754-11.361-19.388-22.824-29.032-34.278-.62-.736-1.069-1.615-1.599-2.428l-.96.626c-.067.772-.192 1.544-.194 2.316-.016 6.491.087 12.984-.06 19.473-.054 2.377.864 3.18 3.052 2.976.165-.015.332-.001.499 0 5.978.049 5.978.049 5.978 6.148 0 6.965 0 6.965-6.874 6.965-7.406 0-14.813-.065-22.219.041-2.111.03-3.062-.486-2.906-2.775.175-2.567.123-5.16.013-7.735-.081-1.877.478-2.695 2.516-2.685 3.95.021 3.955-.084 3.956-4.082.003-11.733.005-23.467-.001-35.201-.002-3.473-.023-3.621-3.405-3.448-2.44.124-3.249-.722-3.079-3.119.183-2.566.093-5.157.022-7.735-.042-1.564.485-2.258 2.15-2.242 6.323.061 12.65-.063 18.971.105 1.114.03 2.478.883 3.257 1.769 9.725 11.058 19.37 22.185 29.004 33.322.534.616.782 1.48 1.164 2.229l1.182-.815zM145.194 774.28c-10.399 0-20.8-.075-31.198.055-2.479.03-3.201-.801-3.04-3.151.175-2.566.087-5.156.023-7.733-.038-1.529.441-2.233 2.113-2.311 5.859-.272 5.858-.327 5.861-6.132.007-11.148-.05-22.298.069-33.444.027-2.449-.572-3.381-3.184-3.279-4.779.186-4.541.617-4.536-4.556.001-2.08.048-4.16-.007-6.239-.042-1.608.658-2.21 2.249-2.187 4.159.059 8.319.017 12.479.017 16.972 0 33.944.035 50.916-.042 2.217-.01 3.078.514 3.029 2.906-.148 7.152-.116 14.31-.014 21.463.03 2.067-.63 2.792-2.708 2.717-3.656-.134-7.322-.113-10.979-.007-1.882.054-2.483-.677-2.424-2.491.102-3.074-.02-6.155.033-9.233.029-1.706-.673-2.327-2.389-2.312-6.988.064-13.977.07-20.965-.004-1.8-.02-2.583.548-2.537 2.413.081 3.325.08 6.656-.002 9.982-.046 1.869.82 2.512 2.558 2.495 3.577-.034 7.156.036 10.732-.018 1.576-.024 2.269.542 2.227 2.184a193.58 193.58 0 00-.005 8.984c.031 1.522-.624 2.063-2.092 2.044-3.577-.046-7.155.038-10.731-.024-1.869-.033-2.752.624-2.692 2.611.097 3.242.072 6.489.009 9.733-.032 1.687.666 2.443 2.348 2.439 7.071-.019 14.143-.019 21.215.001 1.644.005 2.422-.644 2.376-2.385-.08-2.993.056-5.992-.045-8.983-.061-1.78.46-2.576 2.383-2.521 3.824.11 7.654.081 11.479.011 1.627-.03 2.195.608 2.184 2.208-.049 7.488-.071 14.977.012 22.463.022 1.954-.813 2.36-2.553 2.352-10.729-.053-21.462-.027-32.194-.026zM550.445 705.859c11.65 0 23.301.053 34.95-.046 2.329-.02 3.231.571 3.181 3.054-.147 7.07-.121 14.146-.012 21.219.034 2.185-.675 2.949-2.868 2.861-3.655-.146-7.323-.1-10.982-.017-1.732.04-2.376-.607-2.326-2.335.089-3.077-.051-6.16.051-9.235.059-1.743-.653-2.418-2.319-2.392-2.413.039-4.827.021-7.24.012-1.629-.006-2.414.703-2.41 2.417.03 12.731.026 25.464.008 38.196-.003 1.567.622 2.163 2.232 2.221 5.719.202 5.718.255 5.717 6.088 0 1.747-.05 3.497.014 5.241.053 1.439-.433 2.146-1.987 2.141-10.651-.032-21.304-.03-31.955 0-1.471.004-2.116-.523-2.085-2.046.064-3.161.066-6.325.003-9.486-.031-1.575.728-1.938 2.143-1.99 5.394-.201 5.393-.239 5.393-5.664 0-11.234.002-22.469-.002-33.703-.001-3.385-.029-3.409-3.522-3.429-1.748-.011-3.503.1-5.241-.024-2.335-.166-3.098.922-3.028 3.106.089 2.827-.05 5.66.036 8.486.058 1.908-.832 2.432-2.583 2.396-3.743-.078-7.491-.098-11.233.007-1.896.054-2.432-.714-2.415-2.507.069-7.323.098-14.647-.014-21.97-.032-2.168.826-2.646 2.798-2.634 11.896.067 23.796.033 35.696.033zM63.058 705.319c11.568 0 23.136-.002 34.704.001 3.244.001 3.248.008 3.249 3.344.002 6.99-.062 13.982.04 20.972.029 2.055-.612 2.803-2.702 2.728-3.74-.135-7.489-.083-11.233-.019-1.603.027-2.249-.585-2.217-2.198.061-3.16-.019-6.324.012-9.486.016-1.65-.605-2.416-2.369-2.341-2.575.11-5.159.069-7.738.02-1.277-.024-1.768.472-1.766 1.76a9311.55 9311.55 0 01-.001 39.197c-.003 1.508.856 1.77 2.056 1.858 1.71.127 4.281-.288 4.918.624.927 1.325.497 3.625.573 5.512.06 1.495-.091 3.005.036 4.491.172 2.027-.723 2.545-2.625 2.531a2457.455 2457.455 0 00-30.958-.003c-1.808.011-2.567-.521-2.488-2.415.119-2.824.083-5.659.012-8.487-.04-1.572.51-2.366 2.156-2.237 6.944.548 6.108-1.11 6.119-6.467.022-10.735.013-21.471.003-32.206-.003-3.885-.277-4.148-4.053-4.152-1.914-.002-3.833.09-5.741-.024-1.806-.107-2.556.505-2.481 2.396.118 2.991-.055 5.993.059 8.985.071 1.883-.458 2.731-2.508 2.66-3.74-.13-7.49-.09-11.233-.013-1.68.034-2.396-.508-2.38-2.284.063-7.489.076-14.98-.006-22.469-.022-2.007.935-2.305 2.614-2.299 11.98.042 23.964.022 35.948.021zM245.628 709.45c-.213.14-.098.105-.088.052.236-1.273.081-3.32.771-3.661 1.363-.673 3.19-.476 4.828-.506 2.994-.055 5.991.041 8.984-.036 1.613-.042 2.213.572 2.203 2.187-.048 7.57-.05 15.142.001 22.711.011 1.658-.682 2.17-2.248 2.149-4.408-.06-8.818-.05-13.227-.005-1.455.016-2.181-.458-2.629-1.975-2.39-8.072-9.375-13.096-17.085-12.459-8.304.687-14.534 6.479-15.765 14.814-1.063 7.202-1.109 14.323 3.214 20.665 4.182 6.134 10.012 9.079 17.499 8.354 5.769-.558 10.446-5.253 12.091-12.348.397-1.713 1.135-2.132 2.691-2.108 3.992.061 7.986.015 11.979.021 3.076.006 3.4.429 2.807 3.557-1.823 9.609-7.291 16.63-15.978 20.723-14.242 6.71-28.121 5.836-40.859-3.825-7.213-5.47-10.742-13.314-11.715-22.107-.92-8.323-.446-16.625 3.374-24.373 5.042-10.228 13.686-15.193 24.597-16.945 5.357-.86 10.65-.563 15.765 1.038 2.997.94 5.757 2.641 8.79 4.077zM522.344 546.559c-21.042 0-42.086-.042-63.129.056-2.544.012-3.354-.712-3.213-3.244.204-3.648.164-7.321.011-10.974-.093-2.187.623-2.876 2.828-2.858 11.727.094 23.455.044 35.183.044l91.324.001c3.542 0 3.543.003 3.545 3.56.001 3.493-.124 6.992.044 10.478.11 2.298-.655 2.993-2.964 2.984-20.211-.079-40.423-.046-60.635-.046l-2.994-.001z"></path><path fill="#1f2d4d" fill-rule="evenodd" clip-rule="evenodd" d="M90.891 300.447H28.477c-3.871 0-3.872-.002-3.872-3.987 0-3.246.112-6.497-.039-9.734-.101-2.16.577-2.905 2.813-2.883 10.318.104 20.638.046 30.957.046h95.12c3.986 0 3.986 0 3.986 4.104 0 3.079-.151 6.168.048 9.234.161 2.493-.6 3.293-3.186 3.277-17.559-.109-35.118-.057-52.677-.057H90.891zM522.362 335.827c-21.04 0-42.082-.041-63.122.053-2.509.011-3.385-.644-3.239-3.212.21-3.731.1-7.483.034-11.224-.028-1.586.542-2.352 2.17-2.229.496.037.998.001 1.496.001l125.497.001c3.691 0 3.692.005 3.694 3.686.001 3.327-.123 6.66.042 9.978.114 2.281-.623 3.002-2.95 2.993-20.625-.081-41.25-.047-61.875-.047h-1.747zM522.332 370.796h-62.906c-3.367 0-3.369-.005-3.371-3.463-.002-3.328.136-6.664-.046-9.982-.131-2.387.626-3.137 3.066-3.121 15.477.103 30.954.052 46.431.052 26.711 0 53.421-.001 80.131.001 3.249 0 3.252.007 3.255 3.337.004 3.412-.119 6.829.043 10.233.108 2.273-.607 3.001-2.946 2.992-21.219-.083-42.438-.049-63.657-.049zM522.48 405.771c-21.053 0-42.104.001-63.157-.001-3.257-.001-3.26-.008-3.263-3.329-.003-3.661.045-7.324-.021-10.983-.028-1.577.506-2.37 2.16-2.213.495.047.998.006 1.497.006H585.26c3.633 0 3.633.002 3.634 3.704.001 3.245-.133 6.498.045 9.733.13 2.368-.595 3.166-3.055 3.138-10.732-.125-21.468-.054-32.202-.054l-31.202-.001zM522.227 476.153c-20.971 0-41.941.001-62.912-.001-3.255 0-3.257-.006-3.26-3.328-.003-3.162-.001-6.325 0-9.487.001-3.718.002-3.722 3.621-3.722h76.393c16.561 0 33.12.055 49.68-.058 2.582-.018 3.341.774 3.193 3.27-.197 3.317-.046 6.654-.05 9.983-.003 3.335-.006 3.341-3.255 3.342-21.137.002-42.274.001-63.41.001zM522.346 511.146c-21.052 0-42.105-.045-63.157.058-2.586.012-3.316-.774-3.185-3.268.195-3.734.088-7.487.034-11.231-.021-1.463.486-2.211 2.022-2.089.496.039.998.003 1.497.003l125.818.001c3.514 0 3.515.003 3.517 3.579.001 3.245-.148 6.499.048 9.732.151 2.49-.599 3.286-3.187 3.272-19.887-.105-39.775-.058-59.663-.058l-3.744.001zM522.224 283.89h62.667c3.635 0 3.637.002 3.639 3.742.002 3.412-.076 6.827.028 10.235.059 1.933-.616 2.67-2.592 2.622-4.325-.106-8.654-.031-12.982-.031H459.636c-3.592 0-3.594-.005-3.596-3.509-.003-3.412.112-6.829-.042-10.234-.098-2.167.581-2.89 2.812-2.871 11.316.1 22.636.046 33.954.046h29.46zM91.037 335.826H28.405c-3.456 0-3.461-.005-3.466-3.428-.006-3.493.082-6.989-.031-10.479-.067-2.057.691-2.775 2.751-2.758 9.149.076 18.299.032 27.448.032 32.938 0 65.876-.001 98.813.001 3.53 0 3.531.008 3.533 3.597.002 3.327-.139 6.662.047 9.979.135 2.409-.67 3.116-3.084 3.106-21.125-.085-42.252-.05-63.379-.05zM91.25 354.279c21.049 0 42.097.033 63.146-.046 2.338-.009 3.282.56 3.146 3.044-.194 3.567-.165 7.158-.007 10.728.097 2.208-.664 2.841-2.848 2.833-18.553-.075-37.105-.043-55.658-.043l-70.633-.001c-3.337 0-3.342-.005-3.347-3.244-.005-3.494.115-6.994-.043-10.481-.1-2.209.667-2.839 2.849-2.832 21.131.071 42.263.042 63.395.042zM91.276 405.824c-20.969 0-41.938.002-62.907-.001-3.311-.001-3.315-.01-3.321-3.292-.005-3.495.115-6.996-.042-10.483-.1-2.21.671-2.845 2.853-2.834 16.309.079 32.618.042 48.927.042l77.385.001c3.312 0 3.315.006 3.32 3.277.005 3.411-.135 6.83.047 10.232.13 2.42-.709 3.114-3.105 3.105-21.052-.081-42.104-.047-63.157-.047zM91.338 440.876c-20.962 0-41.923.002-62.885-.002-3.499 0-3.505-.013-3.513-3.441-.008-3.327.136-6.662-.047-9.979-.137-2.479.625-3.31 3.208-3.294 17.301.106 34.603.056 51.905.056h74.115c3.327.001 3.331.007 3.334 3.265.004 3.493-.135 6.994.048 10.479.125 2.379-.805 2.962-3.029 2.955-21.046-.064-42.091-.039-63.136-.039zM91.176 476.152c-20.972 0-41.944.001-62.917-.001-3.307-.001-3.314-.008-3.32-3.322-.007-3.662.034-7.324-.012-10.985-.02-1.557.537-2.373 2.183-2.237.496.04.999.001 1.498.001l125.333.001c3.51 0 3.512.005 3.513 3.581.002 3.079.001 6.158 0 9.237-.001 3.723-.002 3.725-3.612 3.725H91.176zM91.273 511.139c-20.97 0-41.941.001-62.911-.001-3.413-.001-3.417-.007-3.423-3.469-.006-3.412.103-6.829-.038-10.234-.091-2.186.673-2.878 2.866-2.859 11.15.092 22.301.042 33.452.042h92.62c3.614 0 3.615.002 3.616 3.719.001 3.328-.116 6.662.041 9.983.103 2.173-.589 2.882-2.812 2.864-12.315-.095-24.632-.045-36.948-.045H91.273zM522.731 424.215c20.965 0 41.93-.001 62.895.001 3.26.001 3.263.007 3.266 3.337.003 3.494-.05 6.989.021 10.482.034 1.686-.578 2.515-2.315 2.39-.496-.036-.998-.001-1.497-.001H459.812c-3.753-.001-3.755-.007-3.757-3.663-.002-3.244.117-6.494-.041-9.731-.107-2.186.618-2.878 2.826-2.858 10.98.097 21.963.044 32.943.044l30.948-.001zM91.281 529.582c20.965 0 41.931-.001 62.896.001 3.271 0 3.273.007 3.277 3.315.003 3.245-.157 6.5.05 9.731.168 2.617-.873 3.222-3.313 3.207-14.891-.092-29.784-.046-44.676-.046-26.956 0-53.911.002-80.866-.002-3.702 0-3.706-.01-3.71-3.771-.004-3.161.116-6.329-.04-9.482-.113-2.288.678-3.012 2.987-3 16.473.085 32.946.046 49.418.046l13.977.001zM386.764 774.279c-4.907 0-9.816-.065-14.722.033-1.884.038-2.49-.66-2.419-2.48.111-2.823.088-5.656.009-8.482-.045-1.63.629-2.15 2.209-2.208 5.322-.193 5.32-.242 5.32-5.556 0-11.479-.054-22.958.046-34.436.02-2.177-.579-2.887-2.798-2.849-5.284.09-4.763.801-4.793-4.742-.01-1.912.106-3.833-.029-5.736-.143-2.022.72-2.55 2.624-2.536 9.815.071 19.631.063 29.445.006 1.762-.011 2.611.439 2.528 2.376-.122 2.822-.089 5.656-.01 8.482.045 1.601-.548 2.175-2.171 2.225-5.37.165-5.368.22-5.368 5.611 0 11.396.063 22.792-.052 34.187-.023 2.33.736 3.061 2.979 3.025 5.043-.077 4.626-.61 4.642 4.708.006 2.079-.063 4.161.017 6.237.063 1.649-.658 2.175-2.235 2.156-5.074-.058-10.148-.021-15.222-.021z"></path></svg>